<svg enable-background="new 0 0 438 132" viewBox="0 0 438 132" xmlns="http://www.w3.org/2000/svg"><g fill="#f4cf00"><path d="m179.4 52.5c4.4 0 8-3.3 8-7.4 0-4.2-3.6-7.4-8-7.4s-7.9 3.2-7.9 7.4c0 4.1 3.5 7.4 7.9 7.4z"/><path d="m422.6 0-99.8 111.3c-3.5 4-6.6 8.1-12 8.1-3.3 0-5.5-1.8-7.5-5.1-1.3-2.1-3.2-5-4.7-7.7 17.8-3.2 26.5-15.3 26.5-27.2 0-11.3-7.7-18-18.5-18-8.8 0-16.5 6-25.5 15.7 1.6-4.6 3-9.4 4.5-14l7.5-25.5h-12.3l-14.6 48.6c-13.5 15.1-20.8 21.8-27.2 27.6 1.1-9.7-5.5-17.5-10-24.8l-4.5-6.3c-1.7-2.3-1.7-3.9.2-6.2l6.3-7.4h-15.6c-13.7 16-26.9 31.7-39.1 44.7-3.5 3.9-5.7 5.1-7.5 5.1-1.7 0-3.5-1.1-2.6-4.4l13.1-45.5h-12.6-15.4l-37.4 43c-4.5 5.1-7.2 6.6-10.4 6.6-4.7 0-7.2-2.8-5-10.3l11.4-39.3h-14.7l-35.9 43.2c-4.1 5-6.8 6.4-10.1 6.4-4.1 0-6.9-2.8-4.7-10.3l11.4-39.3h-6.8-7.3l-42.3 47h15.8l22.4-25.3-5.6 17.5c-4 12.4 3.5 22.6 15.3 22.6 8.9 0 15-3.5 20.3-10.2l23.7-29.8-5.3 17.4c-3.9 12.4 3.5 22.6 15.9 22.6 8.9 0 14.7-3.8 20.3-10.3l44.5-51.3-12.8 44.1c-2.9 10.1 3.4 17.5 13.9 17.5 6.4 0 11.4-3.3 16.2-8.4 9.7-10.7 20.1-22.1 30.1-33.9 3.8 5.8 4.7 7.1 9.5 13.7 2.1 2.9 4.2 6.4 4.2 10.2 0 5.1-4.6 8.1-9.4 8.1-1.1 0-2.1-.1-3.2-.4-.6-.1-1.3-.4-1.9-.6-2.8-1.1-5.2-2.7-7.1-5l-7.1 8.5c3.9 4.7 10.9 8.8 21.3 8.8 11.4 0 21.5-5.7 31.4-15.6l8.6-8.6-6.9 22.2h12.1l10-33.7 12-11.4c6.2-5.8 11.4-11.3 17-11.3 5.1 0 7.7 3.3 7.7 8 0 5.1-4 9.4-9.1 12.2-3.4 1.8-7.2 2.7-12.1 3.2-5.4.5-8.8 6-5.8 11.3 2.1 3.9 5.6 10.4 8.8 14.6 3.9 5.1 9.6 8 15.6 8 11.8 0 15.6-4.9 26.1-16.5l102.4-114.2z"/></g></svg>